<svg width="15" height="13" viewBox="0 0 15 13" fill="none" xmlns="http://www.w3.org/2000/svg">
<g clip-path="url(#clip0_1_381)">
<path d="M2.08418 11.0298V12.5655C2.08418 12.6402 2.05976 12.7015 2.01091 12.7495C1.96206 12.7975 1.89964 12.8215 1.82366 12.8215H0.260523C0.184537 12.8215 0.12212 12.7975 0.073272 12.7495C0.024424 12.7015 0 12.6402 0 12.5655V11.0298C0 10.9552 0.024424 10.8938 0.073272 10.8458C0.12212 10.7978 0.184537 10.7739 0.260523 10.7739H1.82366C1.89964 10.7739 1.96206 10.7978 2.01091 10.8458C2.05976 10.8938 2.08418 10.9552 2.08418 11.0298ZM5.21045 10.006V12.5655C5.21045 12.6402 5.18603 12.7015 5.13718 12.7495C5.08833 12.7975 5.02592 12.8215 4.94993 12.8215H3.3868C3.31081 12.8215 3.24839 12.7975 3.19954 12.7495C3.1507 12.7015 3.12627 12.6402 3.12627 12.5655V10.006C3.12627 9.93134 3.1507 9.87002 3.19954 9.82203C3.24839 9.77404 3.31081 9.75004 3.3868 9.75004H4.94993C5.02592 9.75004 5.08833 9.77404 5.13718 9.82203C5.18603 9.87002 5.21045 9.93134 5.21045 10.006ZM8.33673 7.95838V12.5655C8.33673 12.6402 8.3123 12.7015 8.26345 12.7495C8.21461 12.7975 8.15219 12.8215 8.0762 12.8215H6.51307C6.43708 12.8215 6.37466 12.7975 6.32582 12.7495C6.27697 12.7015 6.25254 12.6402 6.25254 12.5655V7.95838C6.25254 7.88373 6.27697 7.8224 6.32582 7.77441C6.37466 7.72642 6.43708 7.70243 6.51307 7.70243H8.0762C8.15219 7.70243 8.21461 7.72642 8.26345 7.77441C8.3123 7.8224 8.33673 7.88373 8.33673 7.95838ZM11.463 4.88695V12.5655C11.463 12.6402 11.4386 12.7015 11.3897 12.7495C11.3409 12.7975 11.2785 12.8215 11.2025 12.8215H9.63934C9.56335 12.8215 9.50094 12.7975 9.45209 12.7495C9.40324 12.7015 9.37882 12.6402 9.37882 12.5655V4.88695C9.37882 4.8123 9.40324 4.75098 9.45209 4.70299C9.50094 4.655 9.56335 4.631 9.63934 4.631H11.2025C11.2785 4.631 11.3409 4.655 11.3897 4.70299C11.4386 4.75098 11.463 4.8123 11.463 4.88695ZM14.5893 0.791719V12.5655C14.5893 12.6402 14.5648 12.7015 14.516 12.7495C14.4672 12.7975 14.4047 12.8215 14.3287 12.8215H12.7656C12.6896 12.8215 12.6272 12.7975 12.5784 12.7495C12.5295 12.7015 12.5051 12.6402 12.5051 12.5655V0.791719C12.5051 0.717066 12.5295 0.655744 12.5784 0.607753C12.6272 0.559762 12.6896 0.535767 12.7656 0.535767H14.3287C14.4047 0.535767 14.4672 0.559762 14.516 0.607753C14.5648 0.655744 14.5893 0.717066 14.5893 0.791719Z" fill="#E9E9E9"/>
</g>
<defs>
<clipPath id="clip0_1_381">
<rect width="14.5893" height="12.2857" fill="white" transform="translate(0 0.535767)"/>
</clipPath>
</defs>
</svg>
