<svg width="137" height="45" viewBox="0 0 137 45" fill="none" xmlns="http://www.w3.org/2000/svg">
<path d="M9.39946 20.8844L8.24179 21.2111C8.12815 20.8844 7.96717 20.5885 7.75883 20.3233C7.5505 20.0582 7.27825 19.8475 6.94207 19.6912C6.61063 19.535 6.1987 19.4568 5.70628 19.4568C4.96764 19.4568 4.36158 19.632 3.88809 19.9824C3.41461 20.3328 3.17787 20.785 3.17787 21.3389C3.17787 21.8077 3.33885 22.1888 3.66082 22.4824C3.98753 22.7712 4.48942 23.0009 5.1665 23.1713L6.81423 23.5762C7.72806 23.7987 8.41224 24.1514 8.86679 24.6344C9.32607 25.1174 9.55571 25.7234 9.55571 26.4526C9.55571 27.0681 9.38525 27.615 9.04435 28.0932C8.70344 28.5714 8.22758 28.9478 7.61679 29.2225C7.01073 29.4924 6.3076 29.6273 5.50741 29.6273C4.44207 29.6273 3.56376 29.3882 2.87247 28.91C2.18118 28.427 1.73847 27.731 1.54434 26.8219L2.75883 26.5236C2.91508 27.1723 3.22048 27.6623 3.67503 27.9938C4.13431 28.3252 4.738 28.4909 5.48611 28.4909C6.32417 28.4909 6.99416 28.3039 7.49605 27.9299C7.99794 27.5511 8.24889 27.0776 8.24889 26.5094C8.24889 26.0691 8.10211 25.6997 7.80855 25.4014C7.51499 25.0984 7.06991 24.8759 6.47332 24.7338L4.69065 24.3077C3.74368 24.0804 3.04292 23.7206 2.58838 23.2281C2.13383 22.7357 1.90656 22.1249 1.90656 21.3958C1.90656 20.7944 2.06991 20.2665 2.39662 19.812C2.72332 19.3527 3.17313 18.9928 3.74605 18.7324C4.31897 18.472 4.97238 18.3418 5.70628 18.3418C6.70533 18.3418 7.50315 18.5691 8.09974 19.0236C8.70107 19.4734 9.13431 20.0937 9.39946 20.8844ZM16.5852 29.6273C15.6098 29.6273 14.7599 29.3835 14.0355 28.8958C13.3158 28.4081 12.7571 27.7405 12.3593 26.8929C11.9616 26.0454 11.7627 25.0795 11.7627 23.9952C11.7627 22.9014 11.964 21.9284 12.3664 21.0762C12.7736 20.2239 13.3371 19.5563 14.0568 19.0733C14.7765 18.5856 15.6122 18.3418 16.5639 18.3418C17.293 18.3418 17.9536 18.4838 18.5454 18.7679C19.1373 19.0473 19.625 19.4426 20.0085 19.954C20.3967 20.4606 20.6406 21.0525 20.74 21.7296H19.4616C19.329 21.114 19.0094 20.5885 18.5028 20.1529C18.0009 19.7125 17.3617 19.4924 16.5852 19.4924C15.8892 19.4924 15.2736 19.6817 14.7386 20.0605C14.2036 20.4346 13.7845 20.9578 13.4815 21.6301C13.1832 22.2978 13.034 23.0719 13.034 23.9526C13.034 24.838 13.1808 25.6216 13.4744 26.3034C13.7679 26.9805 14.1799 27.5108 14.7102 27.8943C15.2452 28.2779 15.8702 28.4696 16.5852 28.4696C17.0681 28.4696 17.5085 28.3797 17.9062 28.1997C18.3087 28.0151 18.6448 27.7547 18.9147 27.4185C19.1893 27.0823 19.374 26.6822 19.4687 26.2182H20.7471C20.6524 26.8764 20.418 27.4635 20.044 27.9796C19.6747 28.4909 19.1941 28.8934 18.6022 29.187C18.0151 29.4805 17.3428 29.6273 16.5852 29.6273ZM23.4566 29.4V18.4909H24.6853V20.1671H24.7777C24.9955 19.6178 25.3742 19.1751 25.914 18.8389C26.4585 18.498 27.0741 18.3276 27.7606 18.3276C27.8648 18.3276 27.9808 18.3299 28.1086 18.3347C28.2365 18.3394 28.343 18.3442 28.4282 18.3489V19.6344C28.3714 19.6249 28.272 19.6107 28.1299 19.5918C27.9879 19.5728 27.834 19.5634 27.6683 19.5634C27.1001 19.5634 26.5935 19.6841 26.1484 19.9256C25.7081 20.1623 25.36 20.4914 25.1044 20.9128C24.8487 21.3342 24.7208 21.8148 24.7208 22.3546V29.4H23.4566ZM34.4936 29.6273C33.5513 29.6273 32.718 29.3882 31.9936 28.91C31.2739 28.4317 30.7104 27.7712 30.3032 26.9284C29.896 26.0809 29.6924 25.1031 29.6924 23.9952C29.6924 22.8778 29.896 21.8953 30.3032 21.0478C30.7104 20.1955 31.2739 19.5326 31.9936 19.0591C32.718 18.5809 33.5513 18.3418 34.4936 18.3418C35.4358 18.3418 36.2668 18.5809 36.9865 19.0591C37.7062 19.5373 38.2696 20.2002 38.6768 21.0478C39.0887 21.8953 39.2947 22.8778 39.2947 23.9952C39.2947 25.1031 39.0911 26.0809 38.6839 26.9284C38.2767 27.7712 37.7109 28.4317 36.9865 28.91C36.2668 29.3882 35.4358 29.6273 34.4936 29.6273ZM34.4936 28.4696C35.2511 28.4696 35.8927 28.266 36.4183 27.8588C36.9438 27.4516 37.3416 26.9095 37.6115 26.2324C37.8861 25.5553 38.0234 24.8096 38.0234 23.9952C38.0234 23.1808 37.8861 22.4327 37.6115 21.7509C37.3416 21.0691 36.9438 20.5222 36.4183 20.1103C35.8927 19.6983 35.2511 19.4924 34.4936 19.4924C33.7407 19.4924 33.0992 19.6983 32.5688 20.1103C32.0433 20.5222 31.6432 21.0691 31.3686 21.7509C31.0987 22.4327 30.9637 23.1808 30.9637 23.9952C30.9637 24.8096 31.0987 25.5553 31.3686 26.2324C31.6432 26.9095 32.0433 27.4516 32.5688 27.8588C33.0944 28.266 33.736 28.4696 34.4936 28.4696ZM43.3341 14.8546V29.4H42.0699V14.8546H43.3341ZM47.9435 14.8546V29.4H46.6793V14.8546H47.9435Z" fill="#5F5F5F"/>
<path fill-rule="evenodd" clip-rule="evenodd" d="M67.4009 8.4C67.7722 8.4 68.1283 8.5475 68.3908 8.81005C68.6534 9.0726 68.8009 9.4287 68.8009 9.8V15.4C68.8009 15.7713 68.6534 16.1274 68.3908 16.3899C68.1283 16.6525 67.7722 16.8 67.4009 16.8C67.0296 16.8 66.6735 16.6525 66.4109 16.3899C66.1484 16.1274 66.0009 15.7713 66.0009 15.4V9.8C66.0009 9.4287 66.1484 9.0726 66.4109 8.81005C66.6735 8.5475 67.0296 8.4 67.4009 8.4ZM78.6009 30.8V14C78.6009 11.0296 77.4209 8.18081 75.3205 6.0804C73.2201 3.98 70.3713 2.8 67.4009 2.8C64.4305 2.8 61.5817 3.98 59.4813 6.0804C57.3809 8.18081 56.2009 11.0296 56.2009 14V30.8C56.2009 33.7704 57.3809 36.6192 59.4813 38.7196C61.5817 40.82 64.4305 42 67.4009 42C70.3713 42 73.2201 40.82 75.3205 38.7196C77.4209 36.6192 78.6009 33.7704 78.6009 30.8ZM67.4009 0C63.6878 0 60.1269 1.475 57.5014 4.1005C54.8759 6.72601 53.4009 10.287 53.4009 14V30.8C53.4009 34.513 54.8759 38.074 57.5014 40.6995C60.1269 43.325 63.6878 44.8 67.4009 44.8C71.1139 44.8 74.6749 43.325 77.3004 40.6995C79.9259 38.074 81.4009 34.513 81.4009 30.8V14C81.4009 10.287 79.9259 6.72601 77.3004 4.1005C74.6749 1.475 71.1139 0 67.4009 0V0Z" fill="#5F5F5F"/>
<path d="M89.9975 29.6273C89.1026 29.6273 88.319 29.3906 87.6466 28.9171C86.9743 28.4436 86.4487 27.7831 86.0699 26.9355C85.6959 26.088 85.5088 25.1008 85.5088 23.9739C85.5088 22.8517 85.6959 21.8692 86.0699 21.0264C86.4487 20.1789 86.9766 19.5208 87.6537 19.052C88.3308 18.5785 89.1192 18.3418 90.0188 18.3418C90.6817 18.3418 91.2333 18.4602 91.6736 18.6969C92.1139 18.9289 92.4667 19.2177 92.7318 19.5634C92.997 19.909 93.203 20.2452 93.3497 20.5719H93.4634V14.8546H94.7347V29.4H93.4989V27.3759H93.3497C93.203 27.7073 92.9946 28.0482 92.7247 28.3986C92.4549 28.7442 92.0974 29.0354 91.6523 29.2722C91.212 29.5089 90.6603 29.6273 89.9975 29.6273ZM90.1466 28.4696C90.8521 28.4696 91.4534 28.2779 91.9506 27.8943C92.4478 27.5061 92.8265 26.9734 93.087 26.2963C93.3521 25.6145 93.4847 24.8333 93.4847 23.9526C93.4847 23.0814 93.3545 22.312 93.0941 21.6443C92.8336 20.972 92.4549 20.4464 91.9577 20.0676C91.4605 19.6841 90.8568 19.4924 90.1466 19.4924C89.4175 19.4924 88.8019 19.6912 88.3 20.0889C87.8029 20.4819 87.4241 21.0146 87.1637 21.687C86.908 22.3593 86.7801 23.1145 86.7801 23.9526C86.7801 24.8001 86.9103 25.5648 87.1708 26.2466C87.4312 26.9284 87.81 27.4706 88.3071 27.873C88.809 28.2708 89.4222 28.4696 90.1466 28.4696ZM102.576 29.6273C101.633 29.6273 100.8 29.3882 100.076 28.91C99.3559 28.4317 98.7925 27.7712 98.3853 26.9284C97.9781 26.0809 97.7745 25.1031 97.7745 23.9952C97.7745 22.8778 97.9781 21.8953 98.3853 21.0478C98.7925 20.1955 99.3559 19.5326 100.076 19.0591C100.8 18.5809 101.633 18.3418 102.576 18.3418C103.518 18.3418 104.349 18.5809 105.068 19.0591C105.788 19.5373 106.352 20.2002 106.759 21.0478C107.171 21.8953 107.377 22.8778 107.377 23.9952C107.377 25.1031 107.173 26.0809 106.766 26.9284C106.359 27.7712 105.793 28.4317 105.068 28.91C104.349 29.3882 103.518 29.6273 102.576 29.6273ZM102.576 28.4696C103.333 28.4696 103.975 28.266 104.5 27.8588C105.026 27.4516 105.424 26.9095 105.693 26.2324C105.968 25.5553 106.105 24.8096 106.105 23.9952C106.105 23.1808 105.968 22.4327 105.693 21.7509C105.424 21.0691 105.026 20.5222 104.5 20.1103C103.975 19.6983 103.333 19.4924 102.576 19.4924C101.823 19.4924 101.181 19.6983 100.651 20.1103C100.125 20.5222 99.7252 21.0691 99.4506 21.7509C99.1807 22.4327 99.0458 23.1808 99.0458 23.9952C99.0458 24.8096 99.1807 25.5553 99.4506 26.2324C99.7252 26.9095 100.125 27.4516 100.651 27.8588C101.176 28.266 101.818 28.4696 102.576 28.4696ZM112.203 29.4L108.907 18.4909H110.242L112.828 27.4895H112.92L115.498 18.4909H116.841L119.397 27.4682H119.497L122.082 18.4909H123.417L120.122 29.4H118.815L116.23 20.4583H116.095L113.51 29.4H112.203ZM127.139 22.5818V29.4H125.875V18.4909H127.103V20.2026H127.217C127.473 19.6439 127.87 19.1964 128.41 18.8603C128.955 18.5193 129.627 18.3489 130.427 18.3489C131.161 18.3489 131.805 18.5028 132.359 18.8105C132.918 19.1136 133.351 19.561 133.659 20.1529C133.971 20.7447 134.127 21.4715 134.127 22.3333V29.4H132.863V22.4114C132.863 21.5165 132.612 20.8086 132.11 20.2878C131.613 19.767 130.946 19.5066 130.108 19.5066C129.535 19.5066 129.026 19.6297 128.581 19.8759C128.135 20.1221 127.783 20.4772 127.522 20.9412C127.267 21.4005 127.139 21.9474 127.139 22.5818Z" fill="#5F5F5F"/>
</svg>
