<svg width="16" height="16" viewBox="0 0 16 16" fill="none" xmlns="http://www.w3.org/2000/svg">
<g clip-path="url(#clip0_1_377)">
<path d="M4.33143 9.82212L2.98768 8.44638C3.6169 7.81716 4.35553 7.3187 5.20359 6.95098C6.05121 6.58283 6.9656 6.39876 7.94675 6.39876C8.9279 6.39876 9.8425 6.58539 10.6906 6.95866C11.5382 7.33192 12.2766 7.83849 12.9058 8.47837L11.5621 9.82212C11.0928 9.35287 10.5489 8.98494 9.93038 8.71833C9.31183 8.45171 8.65062 8.3184 7.94675 8.3184C7.24288 8.3184 6.58167 8.45171 5.96312 8.71833C5.34457 8.98494 4.80067 9.35287 4.33143 9.82212ZM1.61194 7.10263L0.268188 5.75888C1.24934 4.7564 2.39579 3.97255 3.70755 3.40732C5.0193 2.84209 6.43237 2.55948 7.94675 2.55948C9.46113 2.55948 10.8742 2.84209 12.186 3.40732C13.4977 3.97255 14.6442 4.7564 15.6253 5.75888L14.2816 7.10263C13.4604 6.28145 12.5087 5.6388 11.4264 5.17467C10.3437 4.71097 9.18385 4.47912 7.94675 4.47912C6.70965 4.47912 5.54976 4.71097 4.46708 5.17467C3.38483 5.6388 2.43312 6.28145 1.61194 7.10263ZM7.94675 13.4374L10.2023 11.1659C9.91438 10.8779 9.57845 10.6512 9.19452 10.4857C8.81059 10.3206 8.39467 10.238 7.94675 10.238C7.49884 10.238 7.08291 10.3206 6.69899 10.4857C6.31506 10.6512 5.97912 10.8779 5.69117 11.1659L7.94675 13.4374Z" fill="#E9E9E9"/>
</g>
<defs>
<clipPath id="clip0_1_377">
<rect width="15.3571" height="15.3571" fill="white" transform="translate(0.268066)"/>
</clipPath>
</defs>
</svg>
