<svg width="22" height="21" viewBox="0 0 22 21" fill="none" xmlns="http://www.w3.org/2000/svg">
<g clip-path="url(#clip0_3_4503)">
<path d="M1.3081 1.35489V19.6451H20.6927" stroke="#030723" stroke-miterlimit="10" stroke-linecap="round" stroke-linejoin="round"/>
<path d="M13.2066 12.4748L17.4874 8.1981V8.19406" stroke="#030723" stroke-miterlimit="10" stroke-linecap="round" stroke-linejoin="round"/>
<path d="M18.3435 8.55186C19.0127 8.55186 19.5551 8.00944 19.5551 7.34032C19.5551 6.67121 19.0127 6.12878 18.3435 6.12878C17.6744 6.12878 17.132 6.67121 17.132 7.34032C17.132 8.00944 17.6744 8.55186 18.3435 8.55186Z" stroke="#030723" stroke-miterlimit="10" stroke-linecap="round" stroke-linejoin="round"/>
<path d="M5.74556 10.6777L1.30729 15.116M11.3106 12.6929L7.63556 10.4516M7.81487 9.82155C7.81487 10.1527 7.67756 10.4596 7.45948 10.6777C7.34719 10.7904 7.21376 10.8798 7.06684 10.9408C6.91992 11.0018 6.76241 11.0332 6.60333 11.0332C6.44425 11.0332 6.28673 11.0018 6.13981 10.9408C5.9929 10.8798 5.85947 10.7904 5.74717 10.6777C5.6341 10.5657 5.54444 10.4323 5.48343 10.2854C5.42241 10.1384 5.39126 9.9807 5.39179 9.82155C5.39179 9.15117 5.93294 8.61002 6.60333 8.61002C7.26967 8.61002 7.81487 9.15117 7.81487 9.82155ZM13.5539 13.3229C13.5539 13.9933 13.0087 14.5344 12.3424 14.5344C12.104 14.535 11.8708 14.4652 11.672 14.3337C11.4732 14.2022 11.3176 14.0149 11.2249 13.7953C11.1321 13.5757 11.1063 13.3336 11.1506 13.0994C11.195 12.8652 11.3075 12.6493 11.4741 12.4789C11.5864 12.3628 11.7209 12.2704 11.8696 12.2073C12.0182 12.1441 12.178 12.1113 12.3395 12.1109C12.501 12.1105 12.661 12.1426 12.8099 12.2051C12.9588 12.2676 13.0937 12.3593 13.2066 12.4748C13.4207 12.6929 13.5539 12.9917 13.5539 13.3229Z" stroke="#030723" stroke-miterlimit="10" stroke-linecap="round" stroke-linejoin="round"/>
</g>
<defs>
<clipPath id="clip0_3_4503">
<rect width="21" height="21" fill="white" transform="translate(0.5)"/>
</clipPath>
</defs>
</svg>
