<svg width="20" height="20" viewBox="0 0 20 20" fill="none" xmlns="http://www.w3.org/2000/svg">
<path fill-rule="evenodd" clip-rule="evenodd" d="M6.66667 1.66666C6.66667 1.20642 6.29357 0.833328 5.83333 0.833328C5.3731 0.833328 5 1.20642 5 1.66666V2.49999H4.16667C3.50363 2.49999 2.86774 2.76339 2.3989 3.23223C1.93006 3.70107 1.66667 4.33695 1.66667 4.99999V15.8333C1.66667 16.4964 1.93006 17.1323 2.3989 17.6011C2.86774 18.0699 3.50362 18.3333 4.16667 18.3333H15.8333C16.4964 18.3333 17.1323 18.0699 17.6011 17.6011C18.0699 17.1323 18.3333 16.4964 18.3333 15.8333V4.99999C18.3333 4.33695 18.0699 3.70107 17.6011 3.23223C17.1323 2.76339 16.4964 2.49999 15.8333 2.49999H15.4167C14.9564 2.49999 14.5833 2.87309 14.5833 3.33333C14.5833 3.79357 14.9564 4.16666 15.4167 4.16666H15.8333C16.0543 4.16666 16.2663 4.25446 16.4226 4.41074C16.5789 4.56702 16.6667 4.77898 16.6667 4.99999V7.49999H3.33333V4.99999C3.33333 4.77898 3.42113 4.56702 3.57741 4.41074C3.73369 4.25446 3.94565 4.16666 4.16667 4.16666H5V4.99999C5 5.46023 5.3731 5.83333 5.83333 5.83333C6.29357 5.83333 6.66667 5.46023 6.66667 4.99999V1.66666ZM3.57741 16.4226C3.42113 16.2663 3.33333 16.0543 3.33333 15.8333V9.16666H16.6667V15.8333C16.6667 16.0543 16.5789 16.2663 16.4226 16.4226C16.2663 16.5789 16.0543 16.6667 15.8333 16.6667H4.16667C3.94565 16.6667 3.73369 16.5789 3.57741 16.4226Z" fill="#030723"/>
<path d="M13.3333 1.66666C13.3333 1.20642 12.9602 0.833328 12.5 0.833328C12.0398 0.833328 11.6667 1.20642 11.6667 1.66666V2.49999H8.75C8.28976 2.49999 7.91667 2.87309 7.91667 3.33333C7.91667 3.79357 8.28976 4.16666 8.75 4.16666H11.6667V4.99999C11.6667 5.46023 12.0398 5.83333 12.5 5.83333C12.9602 5.83333 13.3333 5.46023 13.3333 4.99999V1.66666Z" fill="#030723"/>
</svg>
