<svg width="20" height="20" viewBox="0 0 20 20" fill="none" xmlns="http://www.w3.org/2000/svg">
<path d="M8.33334 7.50001C8.33334 7.01087 8.51579 6.69804 8.7553 6.49481C9.01294 6.27621 9.38615 6.14584 9.79168 6.14584C10.1972 6.14584 10.5704 6.27621 10.8281 6.49481C11.0676 6.69804 11.25 7.01087 11.25 7.50001C11.25 7.86432 11.1642 8.06657 11.0644 8.21615C10.9481 8.39066 10.795 8.52827 10.5361 8.76099L10.4842 8.80768C10.2179 9.04738 9.86748 9.37142 9.60032 9.84342C9.32499 10.3298 9.16668 10.9176 9.16668 11.6667C9.16668 12.1269 9.53977 12.5 10 12.5C10.4602 12.5 10.8333 12.1269 10.8333 11.6667C10.8333 11.1658 10.9355 10.8681 11.0507 10.6644C11.1742 10.4463 11.3447 10.2756 11.5991 10.0465C11.6221 10.0259 11.6462 10.0044 11.6714 9.98191C11.8991 9.77892 12.211 9.50088 12.4512 9.14065C12.7421 8.70429 12.9167 8.17737 12.9167 7.50001C12.9167 6.53082 12.5262 5.7499 11.9063 5.22396C11.3046 4.71339 10.532 4.47918 9.79168 4.47918C9.05138 4.47918 8.27875 4.71339 7.67701 5.22396C7.05715 5.7499 6.66668 6.53082 6.66668 7.50001C6.66668 7.96025 7.03977 8.33334 7.50001 8.33334C7.96025 8.33334 8.33334 7.96025 8.33334 7.50001Z" fill="#030723"/>
<path d="M10.6249 15.5598C10.9345 15.2192 10.9095 14.6922 10.5689 14.3826C10.2284 14.073 9.70134 14.0981 9.39174 14.4386L9.38341 14.4478C9.07381 14.7883 9.09889 15.3153 9.43943 15.6249C9.77997 15.9345 10.307 15.9095 10.6166 15.5689L10.6249 15.5598Z" fill="#030723"/>
<path fill-rule="evenodd" clip-rule="evenodd" d="M10 0.833344C4.93727 0.833344 0.833344 4.93727 0.833344 10C0.833344 15.0627 4.93727 19.1667 10 19.1667C15.0627 19.1667 19.1667 15.0627 19.1667 10C19.1667 4.93727 15.0627 0.833344 10 0.833344ZM2.50001 10C2.50001 5.85775 5.85775 2.50001 10 2.50001C14.1423 2.50001 17.5 5.85775 17.5 10C17.5 14.1423 14.1423 17.5 10 17.5C5.85775 17.5 2.50001 14.1423 2.50001 10Z" fill="#030723"/>
</svg>
