<svg width="20" height="20" viewBox="0 0 20 20" fill="none" xmlns="http://www.w3.org/2000/svg">
<path d="M17.2895 8.71744L17.2856 8.70181L15.0942 3.13345C14.9966 2.819 14.7055 2.6022 14.3755 2.6022H5.49265C5.16062 2.6022 4.86569 2.82291 4.77194 3.14127L2.72312 8.65298L2.71726 8.66666L2.71335 8.68228C2.68796 8.77798 2.68015 8.87564 2.69382 8.97134C2.69187 9.00259 2.68991 9.03384 2.68991 9.06509V16.2116C2.69043 16.5264 2.81571 16.8281 3.03829 17.0507C3.26088 17.2733 3.56263 17.3986 3.87741 17.3991H16.1274C16.7817 17.3991 17.3149 16.8659 17.3169 16.2116V9.06509C17.3169 9.0397 17.3169 9.01431 17.3149 8.99283C17.3227 8.89712 17.3149 8.80533 17.2895 8.71744ZM11.5122 7.87759L11.5063 8.18423C11.4907 9.06119 10.8852 9.65103 10.0005 9.65103C9.56882 9.65103 9.19772 9.51236 8.93015 9.24869C8.66257 8.98501 8.51608 8.61783 8.50827 8.18423L8.50241 7.87759H4.48288L6.03562 4.1022H13.8325L15.4282 7.87759H11.5122ZM4.18796 9.37759H7.26022C7.73483 10.4928 8.7446 11.151 10.0024 11.151C10.6606 11.151 11.2719 10.9674 11.7661 10.6198C12.1997 10.3151 12.5376 9.88931 12.7563 9.37759H15.813V15.8991H4.18796V9.37759Z" fill="#030723"/>
</svg>
