<svg width="20" height="20" viewBox="0 0 20 20" fill="none" xmlns="http://www.w3.org/2000/svg">
<path fill-rule="evenodd" clip-rule="evenodd" d="M13 1.66667C12.6464 1.66667 12.3072 1.80715 12.0572 2.0572C11.8071 2.30725 11.6667 2.64638 11.6667 3V6.66667H7.99999C7.64637 6.66667 7.30723 6.80714 7.05718 7.05719C6.80713 7.30724 6.66666 7.64638 6.66666 8V12.5H2.99999C2.64637 12.5 2.30723 12.6405 2.05718 12.8905C1.80713 13.1406 1.66666 13.4797 1.66666 13.8333V17C1.66666 17.3536 1.80713 17.6928 2.05718 17.9428C2.30723 18.1929 2.64637 18.3333 2.99999 18.3333H17C17.3536 18.3333 17.6927 18.1929 17.9428 17.9428C18.1928 17.6928 18.3333 17.3536 18.3333 17V3C18.3333 2.64638 18.1928 2.30725 17.9428 2.0572C17.6927 1.80715 17.3536 1.66667 17 1.66667H13ZM8.33332 8.33334H11.6667V16.6667H8.33332V8.33334ZM16.6667 16.6667H13.3333V3.33334H16.6667V16.6667ZM6.66666 14.1667V16.6667H3.33332V14.1667H6.66666Z" fill="#030723"/>
</svg>
