<svg width="20" height="20" viewBox="0 0 20 20" fill="none" xmlns="http://www.w3.org/2000/svg">
<g clip-path="url(#clip0_2_106)">
<path fill-rule="evenodd" clip-rule="evenodd" d="M10 6.66666C9.11595 6.66666 8.2681 7.01785 7.64298 7.64297C7.01786 8.26809 6.66667 9.11594 6.66667 9.99999C6.66667 10.884 7.01786 11.7319 7.64298 12.357C8.2681 12.9821 9.11595 13.3333 10 13.3333C10.8841 13.3333 11.7319 12.9821 12.357 12.357C12.9821 11.7319 13.3333 10.884 13.3333 9.99999C13.3333 9.11594 12.9821 8.26809 12.357 7.64297C11.7319 7.01785 10.8841 6.66666 10 6.66666ZM8.82149 8.82148C9.13405 8.50892 9.55797 8.33333 10 8.33333C10.442 8.33333 10.866 8.50892 11.1785 8.82148C11.4911 9.13404 11.6667 9.55797 11.6667 9.99999C11.6667 10.442 11.4911 10.8659 11.1785 11.1785C10.866 11.4911 10.442 11.6667 10 11.6667C9.55797 11.6667 9.13405 11.4911 8.82149 11.1785C8.50893 10.8659 8.33333 10.442 8.33333 9.99999C8.33333 9.55797 8.50893 9.13404 8.82149 8.82148Z" fill="#030723"/>
<path fill-rule="evenodd" clip-rule="evenodd" d="M9.15083 0.833328C8.77229 0.833328 8.44131 1.08846 8.34495 1.45453L7.92265 3.05887L6.58095 3.62446L5.55391 2.71073C5.22415 2.41735 4.72284 2.43198 4.41074 2.74407L2.74408 4.41074C2.44216 4.71266 2.41729 5.19393 2.68647 5.52537L3.58658 6.63362L3.03461 7.99156L1.47721 8.35515C1.1001 8.44319 0.833333 8.77941 0.833333 9.16666V10.8333C0.833333 11.2091 1.08482 11.5384 1.44735 11.6373L3.05708 12.0764L3.6242 13.4217L2.71138 14.4454C2.41737 14.7751 2.43172 15.2769 2.74408 15.5892L4.41074 17.2559C4.71307 17.5582 5.19514 17.5827 5.52654 17.3126L6.6344 16.4095L7.95896 16.9543L8.35869 18.5373C8.45213 18.9074 8.78501 19.1667 9.16667 19.1667H10.8333C11.2148 19.1667 11.5476 18.9076 11.6412 18.5377L12.0419 16.954L13.4108 16.3871C13.5486 16.5026 13.7066 16.6382 13.8638 16.7751C14.02 16.9112 14.1652 17.0393 14.2715 17.1336C14.3245 17.1807 14.3677 17.2192 14.3976 17.2459L14.4429 17.2864C14.7724 17.582 15.2762 17.569 15.5893 17.2559L17.2559 15.5892C17.5626 15.2825 17.5828 14.7918 17.3022 14.461L16.3945 13.3906L16.9562 12.0338L18.5429 11.6215C18.9102 11.5261 19.1667 11.1945 19.1667 10.815V9.16666C19.1667 8.78556 18.9081 8.45302 18.5388 8.35905L16.9619 7.95786L16.4016 6.60444L17.3031 5.53795C17.5828 5.20708 17.5623 4.71709 17.2559 4.41074L15.5893 2.74407C15.2817 2.43648 14.7892 2.41723 14.4585 2.69987L13.3999 3.60472L11.9988 3.02866L11.5851 1.4548C11.4889 1.0886 11.1578 0.833328 10.7792 0.833328H9.15083ZM15.5346 14.9535L14.9645 15.5236L14.9583 15.5182C14.6505 15.2502 14.2541 14.9111 14.0305 14.7513C13.7965 14.584 13.4927 14.5492 13.2269 14.6593L11.0178 15.5743C10.7746 15.675 10.5934 15.8846 10.5288 16.1397L10.1846 17.5H9.81573L9.47214 16.1393C9.4075 15.8833 9.22537 15.6731 8.98119 15.5727L6.80952 14.6793C6.52674 14.563 6.20296 14.6109 5.96596 14.8041L5.05695 15.5451L4.47909 14.9672L5.21862 14.138C5.43271 13.8979 5.48951 13.556 5.36456 13.2596L4.43539 11.0555C4.33598 10.8196 4.13372 10.6426 3.88682 10.5752L2.5 10.1969V9.82785L3.83362 9.51651C4.09708 9.455 4.31429 9.26942 4.41616 9.01879L5.31616 6.80462C5.43063 6.52301 5.38267 6.20142 5.19103 5.96546L4.45393 5.05791L5.0334 4.47844L5.86609 5.21926C6.10615 5.43284 6.44762 5.48937 6.7437 5.36455L8.94787 4.43539C9.18611 4.33496 9.36424 4.12964 9.43005 3.87962L9.7932 2.49999H10.1366L10.4924 3.85352C10.5588 4.10617 10.7398 4.31305 10.9814 4.41239L13.2373 5.33989C13.5265 5.4588 13.8579 5.4058 14.0956 5.20262L14.9557 4.4675L15.5355 5.04734L14.8011 5.9162C14.5998 6.15431 14.5483 6.48484 14.6675 6.7729L15.5817 8.98123C15.6822 9.2241 15.8915 9.40529 16.1462 9.4701L17.5 9.81453V10.1705L16.1354 10.5251C15.8825 10.5908 15.675 10.7714 15.575 11.0129L14.66 13.2229C14.5406 13.5114 14.5925 13.8425 14.7944 14.0806L15.5346 14.9535Z" fill="#030723"/>
</g>
<defs>
<clipPath id="clip0_2_106">
<rect width="20" height="20" fill="white"/>
</clipPath>
</defs>
</svg>
